<?xml version="1.0" encoding="UTF-8"?>
<svg width="210px" height="84px" viewBox="0 0 210 84" version="1.1" xmlns="http://www.w3.org/2000/svg" xmlns:xlink="http://www.w3.org/1999/xlink">
    <!-- Generator: Sketch 43.2 (39069) - http://www.bohemiancoding.com/sketch -->
    <title>Group 5</title>
    <desc>Created with Sketch.</desc>
    <defs></defs>
    <g id="Page-1" stroke="none" stroke-width="1" fill="none" fill-rule="evenodd">
        <g id="Desktop-HD" transform="translate(-615.000000, -6744.000000)">
            <g id="Group-5" transform="translate(617.000000, 6744.000000)">
                <polygon id="Fill-1" fill="#D0C21F" points="101.306642 0 102.621388 4.03187692 106.857933 4.03818462 103.434679 6.53666154 104.737456 10.5723231 101.306642 8.08456923 97.8758287 10.5723231 99.1786055 6.53666154 95.7553517 4.03818462 99.9912661 4.03187692"></polygon>
                <polygon id="Fill-2" fill="#D0C21F" points="121.453694 20.09 117.41937 21.3830769 117.387872 25.6243692 114.912722 22.1816308 110.874618 23.4627231 113.379376 20.0420615 110.914936 16.5923846 114.93792 17.9207846 117.452758 14.5076923 117.434489 18.7496154"></polygon>
                <polygon id="Fill-3" fill="#D0C21F" points="115.708373 5.46498462 113.805235 9.25401538 116.80704 12.2470154 112.619633 11.6048923 110.704526 15.3882462 110.020379 11.2030923 105.834862 10.5483538 109.59893 8.60306154 108.927382 4.41538462 111.938636 7.39892308"></polygon>
                <polygon id="Fill-4" fill="#D0C21F" points="101.267584 40.8820462 99.9912661 36.8375538 95.7553517 36.7902462 99.2025443 34.3252 97.9381957 30.2769231 101.3457 32.7981077 104.799823 30.3431538 103.458618 34.3662 106.857303 36.8974769 102.621388 36.8627846"></polygon>
                <polygon id="Fill-5" fill="#D0C21F" points="115.727272 34.5056 111.949976 32.5855385 108.950061 35.5804308 109.606489 31.3902308 105.834862 29.4588154 110.017859 28.7889385 110.687517 24.6 112.616483 28.3764154 116.80074 27.7197846 113.810275 30.7235077"></polygon>
                <polygon id="Fill-6" fill="#D0C21F" points="80.6360856 20.0105231 84.6804893 18.7489846 84.7441162 14.5076923 87.1928073 17.9687231 91.2403609 16.7191692 88.7097737 20.1202769 91.1477554 23.5888769 87.1348502 22.2302 84.5935535 25.6231077 84.644581 21.3818154"></polygon>
                <polygon id="Fill-7" fill="#D0C21F" points="86.8438043 6.02636923 90.5940122 7.99815385 93.6348746 5.04615385 92.9204893 9.22689231 96.6650275 11.2100308 92.473211 11.8218769 91.7462263 16.0007231 89.8701774 12.1978154 85.675841 12.7964154 88.7085138 9.83495385"></polygon>
                <polygon id="Fill-8" fill="#D0C21F" points="86.7222202 35.1155538 88.6549664 31.3410308 85.675841 28.3253231 89.858208 28.9996154 91.8022936 25.2307692 92.4543119 29.4216 96.634789 30.1085077 92.8556024 32.0247846 93.4950214 36.2175077 90.5070765 33.2106308"></polygon>
                <polygon id="Fill-9" fill="#636462" points="5.86375535 61.2590462 5.86375535 67.6304462 14.4521284 67.6304462 14.4521284 72.1372923 5.86375535 72.1372923 5.86375535 81.9287231 0 81.9287231 0 56.7692308 16.1763547 56.7692308 16.1763547 61.2590462"></polygon>
                <polygon id="Stroke-10" stroke="#636462" stroke-width="2.486" points="5.86375535 61.2590462 5.86375535 67.6304462 14.4521284 67.6304462 14.4521284 72.1372923 5.86375535 72.1372923 5.86375535 81.9287231 0 81.9287231 0 56.7692308 16.1763547 56.7692308 16.1763547 61.2590462"></polygon>
                <polygon id="Fill-11" fill="#636462" points="25.3928073 61.2590462 25.3928073 67.1296154 33.2907339 67.1296154 33.2907339 71.4466 25.3928073 71.4466 25.3928073 77.4389077 35.7060367 77.4389077 35.7060367 81.9287231 19.529052 81.9287231 19.529052 56.7692308 35.7060367 56.7692308 35.7060367 61.2590462"></polygon>
                <polygon id="Stroke-12" stroke="#636462" stroke-width="2.486" points="25.3928073 61.2590462 25.3928073 67.1296154 33.2907339 67.1296154 33.2907339 71.4466 25.3928073 71.4466 25.3928073 77.4389077 35.7060367 77.4389077 35.7060367 81.9287231 19.529052 81.9287231 19.529052 56.7692308 35.7060367 56.7692308 35.7060367 61.2590462"></polygon>
                <path d="M55.8908869,69.3398308 C55.8908869,68.0965846 55.7296147,66.9738154 55.4077003,65.9727846 C55.0864159,64.9711231 54.6233884,64.1221077 54.0198777,63.4257385 C53.415737,62.7293692 52.6767829,62.1938462 51.8030153,61.8191692 C50.9298777,61.4457538 49.933896,61.2584154 48.8194801,61.2584154 L44.9224893,61.2584154 L44.9224893,77.4382769 L48.8194801,77.4382769 C49.933896,77.4382769 50.9298777,77.2515692 51.8030153,76.8768923 C52.6767829,76.5028462 53.415737,75.9679538 54.0198777,75.2709538 C54.6233884,74.5745846 55.0864159,73.7255692 55.4077003,72.7245385 C55.7296147,71.7222462 55.8908869,70.5944308 55.8908869,69.3398308 Z M61.8579572,69.3398308 C61.8579572,71.1583385 61.5442324,72.8361846 60.9174128,74.3733692 C60.2912232,75.9099231 59.4086361,77.2395846 58.2709113,78.3623538 C57.1325566,79.4844923 55.7604832,80.3593692 54.157841,80.9869846 C52.5539388,81.6146 50.7749052,81.9280923 48.8194801,81.9280923 L39.058104,81.9280923 L39.058104,56.7692308 L48.8194801,56.7692308 C50.7749052,56.7692308 52.5539388,57.0858769 54.157841,57.7185385 C55.7604832,58.3518308 57.1325566,59.2267077 58.2709113,60.3431692 C59.4086361,61.4596308 60.2912232,62.7867692 60.9174128,64.3233231 C61.5442324,65.8605077 61.8579572,67.5326769 61.8579572,69.3398308 Z" id="Fill-13" fill="#636462"></path>
                <path d="M55.8908869,69.3398308 C55.8908869,68.0965846 55.7296147,66.9738154 55.4077003,65.9727846 C55.0864159,64.9711231 54.6233884,64.1221077 54.0198777,63.4257385 C53.415737,62.7293692 52.6767829,62.1938462 51.8030153,61.8191692 C50.9298777,61.4457538 49.933896,61.2584154 48.8194801,61.2584154 L44.9224893,61.2584154 L44.9224893,77.4382769 L48.8194801,77.4382769 C49.933896,77.4382769 50.9298777,77.2515692 51.8030153,76.8768923 C52.6767829,76.5028462 53.415737,75.9679538 54.0198777,75.2709538 C54.6233884,74.5745846 55.0864159,73.7255692 55.4077003,72.7245385 C55.7296147,71.7222462 55.8908869,70.5944308 55.8908869,69.3398308 Z M61.8579572,69.3398308 C61.8579572,71.1583385 61.5442324,72.8361846 60.9174128,74.3733692 C60.2912232,75.9099231 59.4086361,77.2395846 58.2709113,78.3623538 C57.1325566,79.4844923 55.7604832,80.3593692 54.157841,80.9869846 C52.5539388,81.6146 50.7749052,81.9280923 48.8194801,81.9280923 L39.058104,81.9280923 L39.058104,56.7692308 L48.8194801,56.7692308 C50.7749052,56.7692308 52.5539388,57.0858769 54.157841,57.7185385 C55.7604832,58.3518308 57.1325566,59.2267077 58.2709113,60.3431692 C59.4086361,61.4596308 60.2912232,62.7867692 60.9174128,64.3233231 C61.5442324,65.8605077 61.8579572,67.5326769 61.8579572,69.3398308 Z" id="Stroke-15" stroke="#636462" stroke-width="2.486"></path>
                <polygon id="Fill-17" fill="#636462" points="70.121896 61.2590462 70.121896 67.1296154 78.0198226 67.1296154 78.0198226 71.4466 70.121896 71.4466 70.121896 77.4389077 80.4351254 77.4389077 80.4351254 81.9287231 64.2568807 81.9287231 64.2568807 56.7692308 80.4351254 56.7692308 80.4351254 61.2590462"></polygon>
                <polygon id="Stroke-19" stroke="#636462" stroke-width="2.486" points="70.121896 61.2590462 70.121896 67.1296154 78.0198226 67.1296154 78.0198226 71.4466 70.121896 71.4466 70.121896 77.4389077 80.4351254 77.4389077 80.4351254 81.9287231 64.2568807 81.9287231 64.2568807 56.7692308 80.4351254 56.7692308 80.4351254 61.2590462"></polygon>
                <path d="M91.9610459,68.5974154 C92.7535474,68.5974154 93.4288746,68.4964923 93.9870275,68.2952769 C94.5445505,68.0940615 95.0012783,67.8146308 95.357841,67.4576154 C95.7137737,67.1012308 95.9733211,66.6836615 96.1339633,66.2055385 C96.2939755,65.7280462 96.3752416,65.2127077 96.3752416,64.6607846 C96.3752416,63.5550462 96.016159,62.6915231 95.2979939,62.0702154 C94.5785688,61.4482769 93.4660428,61.1373077 91.9610459,61.1373077 L89.6144098,61.1373077 L89.6144098,68.5974154 L91.9610459,68.5974154 Z M104.343725,81.9280923 L99.065211,81.9280923 C98.0887584,81.9280923 97.3863425,81.5597231 96.9617431,80.8229846 L92.7888257,73.5186769 C92.5922752,73.2077077 92.3749358,72.9806308 92.1330275,72.8368154 C91.8904893,72.693 91.547156,72.6210923 91.0979878,72.6210923 L89.6144098,72.6210923 L89.6144098,81.9280923 L83.7859327,81.9280923 L83.7859327,56.7692308 L91.9610459,56.7692308 C93.7766177,56.7692308 95.3257125,56.9559385 96.6077003,57.3306154 C97.890318,57.7040308 98.9366972,58.2256769 99.7468379,58.8930308 C100.556979,59.5603846 101.14663,60.3494769 101.514532,61.2590462 C101.883064,62.1686154 102.067015,63.1576615 102.067015,64.2287077 C102.067015,65.0461846 101.957401,65.8176154 101.738801,66.5423692 C101.520832,67.2677538 101.198917,67.9388923 100.773058,68.5545231 C100.347829,69.1701538 99.8218043,69.7201846 99.1956147,70.2033538 C98.5681651,70.6871538 97.8474801,71.0839077 97.0297798,71.3948769 C97.4096514,71.5910462 97.7662141,71.8345231 98.1000979,72.1284615 C98.4339817,72.4224 98.7325872,72.7705846 98.9971743,73.1730154 L104.343725,81.9280923 Z" id="Fill-21" fill="#636462"></path>
                <path d="M91.9610459,68.5974154 C92.7535474,68.5974154 93.4288746,68.4964923 93.9870275,68.2952769 C94.5445505,68.0940615 95.0012783,67.8146308 95.357841,67.4576154 C95.7137737,67.1012308 95.9733211,66.6836615 96.1339633,66.2055385 C96.2939755,65.7280462 96.3752416,65.2127077 96.3752416,64.6607846 C96.3752416,63.5550462 96.016159,62.6915231 95.2979939,62.0702154 C94.5785688,61.4482769 93.4660428,61.1373077 91.9610459,61.1373077 L89.6144098,61.1373077 L89.6144098,68.5974154 L91.9610459,68.5974154 Z M104.343725,81.9280923 L99.065211,81.9280923 C98.0887584,81.9280923 97.3863425,81.5597231 96.9617431,80.8229846 L92.7888257,73.5186769 C92.5922752,73.2077077 92.3749358,72.9806308 92.1330275,72.8368154 C91.8904893,72.693 91.547156,72.6210923 91.0979878,72.6210923 L89.6144098,72.6210923 L89.6144098,81.9280923 L83.7859327,81.9280923 L83.7859327,56.7692308 L91.9610459,56.7692308 C93.7766177,56.7692308 95.3257125,56.9559385 96.6077003,57.3306154 C97.890318,57.7040308 98.9366972,58.2256769 99.7468379,58.8930308 C100.556979,59.5603846 101.14663,60.3494769 101.514532,61.2590462 C101.883064,62.1686154 102.067015,63.1576615 102.067015,64.2287077 C102.067015,65.0461846 101.957401,65.8176154 101.738801,66.5423692 C101.520832,67.2677538 101.198917,67.9388923 100.773058,68.5545231 C100.347829,69.1701538 99.8218043,69.7201846 99.1956147,70.2033538 C98.5681651,70.6871538 97.8474801,71.0839077 97.0297798,71.3948769 C97.4096514,71.5910462 97.7662141,71.8345231 98.1000979,72.1284615 C98.4339817,72.4224 98.7325872,72.7705846 98.9971743,73.1730154 L104.343725,81.9280923 Z" id="Stroke-23" stroke="#636462" stroke-width="2.486"></path>
                <path d="M118.843731,72.3101231 L116.516624,65.4202308 C116.343382,64.9824769 116.159431,64.4677692 115.963511,63.8742154 C115.76822,63.2819231 115.57356,62.6398 115.377009,61.9491077 C115.205657,62.6511538 115.021076,63.3021077 114.826416,63.9007077 C114.630495,64.4993077 114.447174,65.0171692 114.273933,65.4542923 L111.963205,72.3101231 L118.843731,72.3101231 Z M128.104911,81.9280923 L123.586141,81.9280923 C123.080905,81.9280923 122.673315,81.8101385 122.36211,81.5742308 C122.052795,81.3383231 121.815927,81.0361846 121.655914,80.6678154 L120.171706,76.2814462 L110.61696,76.2814462 L109.134642,80.6678154 C109.008648,80.9895077 108.781229,81.2802923 108.453645,81.5389077 C108.125431,81.7981538 107.719731,81.9280923 107.237804,81.9280923 L102.685015,81.9280923 L112.411113,56.7692308 L118.378813,56.7692308 L128.104911,81.9280923 Z" id="Fill-25" fill="#636462"></path>
                <path d="M118.843731,72.3101231 L116.516624,65.4202308 C116.343382,64.9824769 116.159431,64.4677692 115.963511,63.8742154 C115.76822,63.2819231 115.57356,62.6398 115.377009,61.9491077 C115.205657,62.6511538 115.021076,63.3021077 114.826416,63.9007077 C114.630495,64.4993077 114.447174,65.0171692 114.273933,65.4542923 L111.963205,72.3101231 L118.843731,72.3101231 Z M128.104911,81.9280923 L123.586141,81.9280923 C123.080905,81.9280923 122.673315,81.8101385 122.36211,81.5742308 C122.052795,81.3383231 121.815927,81.0361846 121.655914,80.6678154 L120.171706,76.2814462 L110.61696,76.2814462 L109.134642,80.6678154 C109.008648,80.9895077 108.781229,81.2802923 108.453645,81.5389077 C108.125431,81.7981538 107.719731,81.9280923 107.237804,81.9280923 L102.685015,81.9280923 L112.411113,56.7692308 L118.378813,56.7692308 L128.104911,81.9280923 Z" id="Stroke-27" stroke="#636462" stroke-width="2.486"></path>
                <polygon id="Fill-29" fill="#636462" points="144.703346 61.3965538 137.633199 61.3965538 137.633199 81.9280923 131.804722 81.9280923 131.804722 61.3965538 124.733945 61.3965538 124.733945 56.7692308 144.703346 56.7692308"></polygon>
                <polygon id="Stroke-31" stroke="#636462" stroke-width="2.486" points="144.703346 61.3965538 137.633199 61.3965538 137.633199 81.9280923 131.804722 81.9280923 131.804722 61.3965538 124.733945 61.3965538 124.733945 56.7692308 144.703346 56.7692308"></polygon>
                <polygon id="Fill-33" fill="#636462" points="147.412844 81.9280923 153.275339 81.9280923 153.275339 56.7692308 147.412844 56.7692308"></polygon>
                <polygon id="Stroke-35" stroke="#636462" stroke-width="2.486" points="147.412844 81.9280923 153.275339 81.9280923 153.275339 56.7692308 147.412844 56.7692308"></polygon>
                <path d="M175.745089,68.9859692 C175.745089,67.7427231 175.585076,66.6231077 175.263162,65.6271231 C174.941248,64.6317692 174.47759,63.7878 173.87408,63.0977385 C173.270569,62.4070462 172.532245,61.8772 171.657847,61.5088308 C170.785339,61.1404615 169.789988,60.9569077 168.674942,60.9569077 C167.548557,60.9569077 166.545015,61.1404615 165.664948,61.5088308 C164.786141,61.8772 164.044667,62.4070462 163.440526,63.0977385 C162.837015,63.7878 162.373988,64.6317692 162.053333,65.6271231 C161.730789,66.6231077 161.569517,67.7427231 161.569517,68.9859692 C161.569517,70.2405692 161.730789,71.3658615 162.053333,72.3618462 C162.373988,73.3578308 162.837015,74.2005385 163.440526,74.8918615 C164.044667,75.5825538 164.786141,76.1086154 165.664948,76.4713077 C166.545015,76.834 167.548557,77.0156615 168.674942,77.0156615 C169.789988,77.0156615 170.785339,76.834 171.657847,76.4713077 C172.532245,76.1086154 173.270569,75.5825538 173.87408,74.8918615 C174.47759,74.2005385 174.941248,73.3578308 175.263162,72.3618462 C175.585076,71.3658615 175.745089,70.2405692 175.745089,68.9859692 M181.712789,68.9859692 C181.712789,70.8044769 181.399064,72.4968308 180.772245,74.0624 C180.146055,75.6279692 179.263468,76.9891692 178.125743,78.1466308 C176.987388,79.3034615 175.615945,80.2098769 174.012673,80.8658769 C172.408771,81.5225077 170.629107,81.8505077 168.674942,81.8505077 C166.720777,81.8505077 164.938593,81.5225077 163.328391,80.8658769 C161.71882,80.2098769 160.341706,79.3034615 159.198312,78.1466308 C158.054917,76.9891692 157.16981,75.6279692 156.542361,74.0624 C155.914911,72.4968308 155.602446,70.8044769 155.602446,68.9859692 C155.602446,67.1668308 155.914911,65.4751077 156.542361,63.9095385 C157.16981,62.3433385 158.054917,60.9852923 159.198312,59.8341385 C160.341706,58.6836154 161.71882,57.7790923 163.328391,57.1224615 C164.938593,56.4670923 166.720777,56.1384615 168.674942,56.1384615 C170.629107,56.1384615 172.408771,56.4696154 174.012673,57.1319231 C175.615945,57.7936 176.987388,58.7000154 178.125743,59.8511692 C179.263468,61.0023231 180.146055,62.361 180.772245,63.9265692 C181.399064,65.4921385 181.712789,67.1788154 181.712789,68.9859692" id="Fill-36" fill="#636462"></path>
                <path d="M175.745089,68.9859692 C175.745089,67.7427231 175.585076,66.6231077 175.263162,65.6271231 C174.941248,64.6317692 174.47759,63.7878 173.87408,63.0977385 C173.270569,62.4070462 172.532245,61.8772 171.657847,61.5088308 C170.785339,61.1404615 169.789988,60.9569077 168.674942,60.9569077 C167.548557,60.9569077 166.545015,61.1404615 165.664948,61.5088308 C164.786141,61.8772 164.044667,62.4070462 163.440526,63.0977385 C162.837015,63.7878 162.373988,64.6317692 162.053333,65.6271231 C161.730789,66.6231077 161.569517,67.7427231 161.569517,68.9859692 C161.569517,70.2405692 161.730789,71.3658615 162.053333,72.3618462 C162.373988,73.3578308 162.837015,74.2005385 163.440526,74.8918615 C164.044667,75.5825538 164.786141,76.1086154 165.664948,76.4713077 C166.545015,76.834 167.548557,77.0156615 168.674942,77.0156615 C169.789988,77.0156615 170.785339,76.834 171.657847,76.4713077 C172.532245,76.1086154 173.270569,75.5825538 173.87408,74.8918615 C174.47759,74.2005385 174.941248,73.3578308 175.263162,72.3618462 C175.585076,71.3658615 175.745089,70.2405692 175.745089,68.9859692 Z M181.712789,68.9859692 C181.712789,70.8044769 181.399064,72.4968308 180.772245,74.0624 C180.146055,75.6279692 179.263468,76.9891692 178.125743,78.1466308 C176.987388,79.3034615 175.615945,80.2098769 174.012673,80.8658769 C172.408771,81.5225077 170.629107,81.8505077 168.674942,81.8505077 C166.720777,81.8505077 164.938593,81.5225077 163.328391,80.8658769 C161.71882,80.2098769 160.341706,79.3034615 159.198312,78.1466308 C158.054917,76.9891692 157.16981,75.6279692 156.542361,74.0624 C155.914911,72.4968308 155.602446,70.8044769 155.602446,68.9859692 C155.602446,67.1668308 155.914911,65.4751077 156.542361,63.9095385 C157.16981,62.3433385 158.054917,60.9852923 159.198312,59.8341385 C160.341706,58.6836154 161.71882,57.7790923 163.328391,57.1224615 C164.938593,56.4670923 166.720777,56.1384615 168.674942,56.1384615 C170.629107,56.1384615 172.408771,56.4696154 174.012673,57.1319231 C175.615945,57.7936 176.987388,58.7000154 178.125743,59.8511692 C179.263468,61.0023231 180.146055,62.361 180.772245,63.9265692 C181.399064,65.4921385 181.712789,67.1788154 181.712789,68.9859692 Z" id="Stroke-37" stroke="#636462" stroke-width="2.486"></path>
                <path d="M205.886606,56.7692308 L205.886606,81.9280923 L202.852043,81.9280923 C202.402875,81.9280923 202.027413,81.8561846 201.722508,81.7123692 C201.416972,81.5685538 201.116477,81.3181385 200.816612,80.9611231 L188.968777,65.9557538 C189.014765,66.4042308 189.046893,66.8388308 189.063272,67.2589231 C189.081541,67.6796462 189.090361,68.0732462 189.090361,68.4422462 L189.090361,81.9280923 L183.95107,81.9280923 L183.95107,56.7692308 L187.020911,56.7692308 C187.272269,56.7692308 187.485829,56.7805846 187.65844,56.8032923 C187.830422,56.8266308 187.984765,56.8701538 188.123988,56.9332308 C188.261951,56.9963077 188.392985,57.0858769 188.520869,57.2006769 C188.646232,57.3161077 188.790495,57.4712769 188.951138,57.6668154 L200.902917,72.7762615 C200.84559,72.2924615 200.805272,71.8238 200.781963,71.3690154 C200.758654,70.9142308 200.747315,70.4853077 200.747315,70.0822462 L200.747315,56.7692308 L205.886606,56.7692308 Z" id="Fill-38" fill="#636462"></path>
                <path d="M205.886606,56.7692308 L205.886606,81.9280923 L202.852043,81.9280923 C202.402875,81.9280923 202.027413,81.8561846 201.722508,81.7123692 C201.416972,81.5685538 201.116477,81.3181385 200.816612,80.9611231 L188.968777,65.9557538 C189.014765,66.4042308 189.046893,66.8388308 189.063272,67.2589231 C189.081541,67.6796462 189.090361,68.0732462 189.090361,68.4422462 L189.090361,81.9280923 L183.95107,81.9280923 L183.95107,56.7692308 L187.020911,56.7692308 C187.272269,56.7692308 187.485829,56.7805846 187.65844,56.8032923 C187.830422,56.8266308 187.984765,56.8701538 188.123988,56.9332308 C188.261951,56.9963077 188.392985,57.0858769 188.520869,57.2006769 C188.646232,57.3161077 188.790495,57.4712769 188.951138,57.6668154 L200.902917,72.7762615 C200.84559,72.2924615 200.805272,71.8238 200.781963,71.3690154 C200.758654,70.9142308 200.747315,70.4853077 200.747315,70.0822462 L200.747315,56.7692308 L205.886606,56.7692308 Z" id="Stroke-39" stroke="#636462" stroke-width="2.486"></path>
            </g>
        </g>
    </g>
</svg>