<?xml version="1.0" encoding="UTF-8"?>
<svg width="439px" height="174px" viewBox="0 0 439 174" version="1.1" xmlns="http://www.w3.org/2000/svg" xmlns:xlink="http://www.w3.org/1999/xlink">
    <!-- Generator: Sketch 43.2 (39069) - http://www.bohemiancoding.com/sketch -->
    <title>Group 6</title>
    <desc>Created with Sketch.</desc>
    <defs>
        <polygon id="path-1" points="0 173.94072 438.754441 173.94072 438.754441 0 0 0"></polygon>
    </defs>
    <g id="Page-1" stroke="none" stroke-width="1" fill="none" fill-rule="evenodd">
        <g id="Desktop-HD" transform="translate(-501.000000, -312.000000)">
            <g id="Group-6" transform="translate(501.000000, 312.000000)">
                <g id="Group-4">
                    <polygon id="Fill-1" fill="#D7C700" points="215.465873 0.00106060606 212.690284 8.47530303 203.752036 8.48856061 210.97548 13.7398864 208.226477 22.2220833 215.465873 16.9932955 222.705269 22.2220833 219.956266 13.7398864 227.17971 8.48856061 218.240133 8.47530303"></polygon>
                    <polygon id="Fill-2" fill="#D7C700" points="258.876725 42.8722159 250.363855 45.5900189 250.29739 54.5044129 245.07455 47.268428 236.553704 49.9610417 241.839021 42.7714583 236.638779 35.5208902 245.127722 38.3129356 250.434308 31.1392614 250.395758 40.0549811"></polygon>
                    <polygon id="Fill-3" fill="#D7C700" points="245.906828 12.2322348 241.890997 20.1960606 248.225136 26.4867803 239.389245 25.1371591 235.348157 33.089053 233.904532 24.2926515 225.072628 22.9165152 233.015227 18.8278788 231.598187 10.0261742 237.952266 16.2970076"></polygon>
                    <polygon id="Fill-4" fill="#D7C700" points="215.729474 85.912803 213.036302 77.4120455 204.098054 77.3126136 211.372012 72.131553 208.704097 63.6228409 215.894308 68.9218939 223.182888 63.7620455 220.352798 72.2177273 227.524399 77.5379924 218.586151 77.4650758"></polygon>
                    <polygon id="Fill-5" fill="#D7C700" points="246.498767 73.0920644 238.528254 69.0564583 232.198103 75.3511553 233.583239 66.5441477 225.624689 62.484678 234.451275 61.0767235 235.864326 52.2723674 239.934659 60.209678 248.763903 58.8295644 242.453692 65.142822"></polygon>
                    <polygon id="Fill-6" fill="#D7C700" points="172.73403 42.7103409 181.268169 40.0588258 181.402429 31.1444318 186.569438 38.4188636 195.110224 35.7925379 189.770405 42.9410227 194.914816 50.2313636 186.447142 47.3756818 181.084725 54.5069318 181.192399 45.5925379"></polygon>
                    <polygon id="Fill-7" fill="#D7C700" points="185.532447 12.3992803 193.445801 16.5435985 199.862356 10.339053 198.354924 19.1261742 206.256314 23.2943561 197.411118 24.5803409 195.8771 33.3634848 191.918429 25.3704924 183.067915 26.6286364 189.46719 20.4042045"></polygon>
                    <polygon id="Fill-8" fill="#D7C700" points="185.466912 73.4488258 189.545221 65.5154924 183.258937 59.1770455 192.084193 60.5942803 196.186429 52.6728788 197.56226 61.4812121 206.383529 62.9249621 198.409027 66.9526136 199.758272 75.7649242 193.453378 69.4450379"></polygon>
                    <polygon id="Fill-9" fill="#FFFFFF" points="14.0254985 128.269034 14.0254985 141.660511 32.1479154 141.660511 32.1479154 151.133049 14.0254985 151.133049 14.0254985 171.712784 1.65232628 171.712784 1.65232628 118.832292 35.7862236 118.832292 35.7862236 128.269034"></polygon>
                    <polygon id="Stroke-10" stroke="#FFFFFF" stroke-width="2.486" points="14.0254985 128.269034 14.0254985 141.660511 32.1479154 141.660511 32.1479154 151.133049 14.0254985 151.133049 14.0254985 171.712784 1.65232628 171.712784 1.65232628 118.832292 35.7862236 118.832292 35.7862236 128.269034"></polygon>
                    <polygon id="Fill-12" fill="#FFFFFF" points="55.2560242 128.269034 55.2560242 140.60786 71.9215227 140.60786 71.9215227 149.681345 55.2560242 149.681345 55.2560242 162.276042 77.0180785 162.276042 77.0180785 171.712784 42.882852 171.712784 42.882852 118.832292 77.0180785 118.832292 77.0180785 128.269034"></polygon>
                    <polygon id="Stroke-13" stroke="#FFFFFF" stroke-width="2.486" points="55.2560242 128.269034 55.2560242 140.60786 71.9215227 140.60786 71.9215227 149.681345 55.2560242 149.681345 55.2560242 162.276042 77.0180785 162.276042 77.0180785 171.712784 42.882852 171.712784 42.882852 118.832292 77.0180785 118.832292 77.0180785 128.269034"></polygon>
                    <path d="M120.104447,145.253977 C120.104447,142.640909 119.764145,140.281061 119.08487,138.177083 C118.406924,136.07178 117.429885,134.287311 116.156411,132.823674 C114.881607,131.360038 113.322332,130.23447 111.478586,129.44697 C109.636169,128.662121 107.534538,128.268371 105.182997,128.268371 L96.9599154,128.268371 L96.9599154,162.275379 L105.182997,162.275379 C107.534538,162.275379 109.636169,161.882955 111.478586,161.095455 C113.322332,160.30928 114.881607,159.185038 116.156411,157.720076 C117.429885,156.256439 118.406924,154.47197 119.08487,152.367992 C119.764145,150.261364 120.104447,147.890909 120.104447,145.253977 M132.695625,145.253977 C132.695625,149.076136 132.033631,152.602652 130.710973,155.833523 C129.389644,159.063068 127.527287,161.857765 125.126562,164.217614 C122.724508,166.576136 119.829281,168.414962 116.447529,169.734091 C113.063118,171.05322 109.30916,171.712121 105.182997,171.712121 L84.5854139,171.712121 L84.5854139,118.832955 L105.182997,118.832955 C109.30916,118.832955 113.063118,119.498485 116.447529,120.82822 C119.829281,122.15928 122.724508,123.998106 125.126562,126.344697 C127.527287,128.691288 129.389644,131.480682 130.710973,134.710227 C132.033631,137.941098 132.695625,141.455682 132.695625,145.253977" id="Fill-15" fill="#FFFFFF"></path>
                    <path d="M120.104447,145.253977 C120.104447,142.640909 119.764145,140.281061 119.08487,138.177083 C118.406924,136.07178 117.429885,134.287311 116.156411,132.823674 C114.881607,131.360038 113.322332,130.23447 111.478586,129.44697 C109.636169,128.662121 107.534538,128.268371 105.182997,128.268371 L96.9599154,128.268371 L96.9599154,162.275379 L105.182997,162.275379 C107.534538,162.275379 109.636169,161.882955 111.478586,161.095455 C113.322332,160.30928 114.881607,159.185038 116.156411,157.720076 C117.429885,156.256439 118.406924,154.47197 119.08487,152.367992 C119.764145,150.261364 120.104447,147.890909 120.104447,145.253977 Z M132.695625,145.253977 C132.695625,149.076136 132.033631,152.602652 130.710973,155.833523 C129.389644,159.063068 127.527287,161.857765 125.126562,164.217614 C122.724508,166.576136 119.829281,168.414962 116.447529,169.734091 C113.063118,171.05322 109.30916,171.712121 105.182997,171.712121 L84.5854139,171.712121 L84.5854139,118.832955 L105.182997,118.832955 C109.30916,118.832955 113.063118,119.498485 116.447529,120.82822 C119.829281,122.15928 122.724508,123.998106 125.126562,126.344697 C127.527287,128.691288 129.389644,131.480682 130.710973,134.710227 C132.033631,137.941098 132.695625,141.455682 132.695625,145.253977 Z" id="Stroke-17" stroke="#FFFFFF" stroke-width="2.486"></path>
                    <polygon id="Fill-19" fill="#FFFFFF" points="150.039202 128.269034 150.039202 140.60786 166.704701 140.60786 166.704701 149.681345 150.039202 149.681345 150.039202 162.276042 171.801257 162.276042 171.801257 171.712784 137.663372 171.712784 137.663372 118.832292 171.801257 118.832292 171.801257 128.269034"></polygon>
                    <polygon id="Stroke-21" stroke="#FFFFFF" stroke-width="2.486" points="150.039202 128.269034 150.039202 140.60786 166.704701 140.60786 166.704701 149.681345 150.039202 149.681345 150.039202 162.276042 171.801257 162.276042 171.801257 171.712784 137.663372 171.712784 137.663372 118.832292 171.801257 118.832292 171.801257 128.269034"></polygon>
                    <path d="M196.619384,143.693295 C198.29165,143.693295 199.716665,143.481174 200.894429,143.058258 C202.070864,142.635341 203.03461,142.04803 203.786997,141.297652 C204.538054,140.548598 205.085728,139.670947 205.424701,138.666023 C205.762344,137.662424 205.933825,136.57928 205.933825,135.419242 C205.933825,133.095189 205.176121,131.280227 203.660713,129.974356 C202.142647,128.667159 199.795094,128.013561 196.619384,128.013561 L191.667722,128.013561 L191.667722,143.693295 L196.619384,143.693295 Z M222.748205,171.711856 L211.609958,171.711856 C209.549535,171.711856 208.06736,170.937614 207.171408,169.389129 L198.366091,154.036856 C197.951347,153.383258 197.492737,152.905985 196.982284,152.603712 C196.470502,152.301439 195.74603,152.150303 194.798236,152.150303 L191.667722,152.150303 L191.667722,171.711856 L179.368991,171.711856 L179.368991,118.832689 L196.619384,118.832689 C200.450441,118.832689 203.719202,119.225114 206.424338,120.012614 C209.130804,120.797462 211.338779,121.893864 213.048266,123.296515 C214.757752,124.699167 216.001982,126.357689 216.778296,128.269432 C217.55594,130.181174 217.944097,132.259962 217.944097,134.511098 C217.944097,136.22928 217.712798,137.850682 217.251529,139.373977 C216.791589,140.898598 216.112314,142.309205 215.213704,143.603144 C214.316423,144.897083 213.206453,146.053144 211.885124,147.068674 C210.561136,148.08553 209.040411,148.919432 207.314973,149.57303 C208.116544,149.985341 208.868931,150.497083 209.573462,151.114886 C210.277994,151.732689 210.908085,152.464508 211.466393,153.310341 L222.748205,171.711856 Z" id="Fill-23" fill="#FFFFFF"></path>
                    <path d="M196.619384,143.693295 C198.29165,143.693295 199.716665,143.481174 200.894429,143.058258 C202.070864,142.635341 203.03461,142.04803 203.786997,141.297652 C204.538054,140.548598 205.085728,139.670947 205.424701,138.666023 C205.762344,137.662424 205.933825,136.57928 205.933825,135.419242 C205.933825,133.095189 205.176121,131.280227 203.660713,129.974356 C202.142647,128.667159 199.795094,128.013561 196.619384,128.013561 L191.667722,128.013561 L191.667722,143.693295 L196.619384,143.693295 Z M222.748205,171.711856 L211.609958,171.711856 C209.549535,171.711856 208.06736,170.937614 207.171408,169.389129 L198.366091,154.036856 C197.951347,153.383258 197.492737,152.905985 196.982284,152.603712 C196.470502,152.301439 195.74603,152.150303 194.798236,152.150303 L191.667722,152.150303 L191.667722,171.711856 L179.368991,171.711856 L179.368991,118.832689 L196.619384,118.832689 C200.450441,118.832689 203.719202,119.225114 206.424338,120.012614 C209.130804,120.797462 211.338779,121.893864 213.048266,123.296515 C214.757752,124.699167 216.001982,126.357689 216.778296,128.269432 C217.55594,130.181174 217.944097,132.259962 217.944097,134.511098 C217.944097,136.22928 217.712798,137.850682 217.251529,139.373977 C216.791589,140.898598 216.112314,142.309205 215.213704,143.603144 C214.316423,144.897083 213.206453,146.053144 211.885124,147.068674 C210.561136,148.08553 209.040411,148.919432 207.314973,149.57303 C208.116544,149.985341 208.868931,150.497083 209.573462,151.114886 C210.277994,151.732689 210.908085,152.464508 211.466393,153.310341 L222.748205,171.711856 Z" id="Stroke-25" stroke="#FFFFFF" stroke-width="2.486"></path>
                    <path d="M252.934997,151.49697 L248.024544,137.01572 C247.658985,136.095644 247.270828,135.013826 246.857414,133.766288 C246.445329,132.521402 246.034574,131.17178 245.619831,129.720076 C245.25826,131.195644 244.868773,132.563826 244.458018,133.82197 C244.044604,135.080114 243.657776,136.168561 243.292218,137.087311 L238.416326,151.49697 L252.934997,151.49697 Z M272.477112,171.712121 L262.942006,171.712121 C261.875903,171.712121 261.015843,171.464205 260.359166,170.968371 C259.706477,170.472538 259.206659,169.8375 258.869015,169.063258 L255.737172,159.843939 L235.575601,159.843939 L232.447746,169.063258 C232.181885,169.739394 231.702006,170.350568 231.010767,170.894129 C230.318199,171.439015 229.462127,171.712121 228.445208,171.712121 L218.83832,171.712121 L239.361462,118.832955 L251.95397,118.832955 L272.477112,171.712121 Z" id="Fill-27" fill="#FFFFFF"></path>
                    <path d="M252.934997,151.49697 L248.024544,137.01572 C247.658985,136.095644 247.270828,135.013826 246.857414,133.766288 C246.445329,132.521402 246.034574,131.17178 245.619831,129.720076 C245.25826,131.195644 244.868773,132.563826 244.458018,133.82197 C244.044604,135.080114 243.657776,136.168561 243.292218,137.087311 L238.416326,151.49697 L252.934997,151.49697 Z M272.477112,171.712121 L262.942006,171.712121 C261.875903,171.712121 261.015843,171.464205 260.359166,170.968371 C259.706477,170.472538 259.206659,169.8375 258.869015,169.063258 L255.737172,159.843939 L235.575601,159.843939 L232.447746,169.063258 C232.181885,169.739394 231.702006,170.350568 231.010767,170.894129 C230.318199,171.439015 229.462127,171.712121 228.445208,171.712121 L218.83832,171.712121 L239.361462,118.832955 L251.95397,118.832955 L272.477112,171.712121 Z" id="Stroke-29" stroke="#FFFFFF" stroke-width="2.486"></path>
                    <polygon id="Fill-31" fill="#FFFFFF" points="307.287227 128.558447 292.368435 128.558447 292.368435 171.711856 280.069704 171.711856 280.069704 128.558447 265.149583 128.558447 265.149583 118.832689 307.287227 118.832689"></polygon>
                    <polygon id="Stroke-33" stroke="#FFFFFF" stroke-width="2.486" points="307.287227 128.558447 292.368435 128.558447 292.368435 171.711856 280.069704 171.711856 280.069704 128.558447 265.149583 128.558447 265.149583 118.832689 307.287227 118.832689"></polygon>
                    <mask id="mask-2" fill="white">
                        <use xlink:href="#path-1"></use>
                    </mask>
                    <g id="Clip-36"></g>
                    <polygon id="Fill-35" fill="#FFFFFF" mask="url(#mask-2)" points="313.513958 171.712121 325.884471 171.712121 325.884471 118.832955 313.513958 118.832955"></polygon>
                    <polygon id="Stroke-37" stroke="#FFFFFF" stroke-width="2.486" mask="url(#mask-2)" points="313.513958 171.712121 325.884471 171.712121 325.884471 118.832955 313.513958 118.832955"></polygon>
                    <path d="M373.286429,145.253977 C373.286429,142.640909 372.948785,140.287689 372.269511,138.194318 C371.590236,136.102273 370.611867,134.328409 369.338393,132.87803 C368.064918,131.426326 366.506973,130.312689 364.661897,129.538447 C362.82081,128.764205 360.720508,128.378409 358.367637,128.378409 C355.99084,128.378409 353.873257,128.764205 352.016218,129.538447 C350.161837,130.312689 348.597245,131.426326 347.322441,132.87803 C346.048967,134.328409 345.071927,136.102273 344.395311,138.194318 C343.714707,140.287689 343.374405,142.640909 343.374405,145.253977 C343.374405,147.890909 343.714707,150.256061 344.395311,152.349432 C345.071927,154.442803 346.048967,156.214015 347.322441,157.667045 C348.597245,159.11875 350.161837,160.224432 352.016218,160.986742 C353.873257,161.749053 355.99084,162.130871 358.367637,162.130871 C360.720508,162.130871 362.82081,161.749053 364.661897,160.986742 C366.506973,160.224432 368.064918,159.11875 369.338393,157.667045 C370.611867,156.214015 371.590236,154.442803 372.269511,152.349432 C372.948785,150.256061 373.286429,147.890909 373.286429,145.253977 M385.878937,145.253977 C385.878937,149.076136 385.216943,152.633144 383.894284,155.923674 C382.572955,159.214205 380.710598,162.075189 378.309873,164.507955 C375.907819,166.939394 373.013921,168.844508 369.63084,170.223295 C366.246429,171.603409 362.491142,172.292803 358.367637,172.292803 C354.244133,172.292803 350.483529,171.603409 347.085825,170.223295 C343.68945,168.844508 340.783589,166.939394 338.3709,164.507955 C335.958211,162.075189 334.090538,159.214205 332.76655,155.923674 C331.442562,152.633144 330.783227,149.076136 330.783227,145.253977 C330.783227,141.430492 331.442562,137.874811 332.76655,134.58428 C334.090538,131.292424 335.958211,128.438068 338.3709,126.018561 C340.783589,123.600379 343.68945,121.699242 347.085825,120.319129 C350.483529,118.941667 354.244133,118.250947 358.367637,118.250947 C362.491142,118.250947 366.246429,118.94697 369.63084,120.339015 C373.013921,121.729735 375.907819,123.634848 378.309873,126.054356 C380.710598,128.473864 382.572955,131.329545 383.894284,134.620076 C385.216943,137.910606 385.878937,141.455682 385.878937,145.253977" id="Fill-38" fill="#FFFFFF" mask="url(#mask-2)"></path>
                    <path d="M373.286429,145.253977 C373.286429,142.640909 372.948785,140.287689 372.269511,138.194318 C371.590236,136.102273 370.611867,134.328409 369.338393,132.87803 C368.064918,131.426326 366.506973,130.312689 364.661897,129.538447 C362.82081,128.764205 360.720508,128.378409 358.367637,128.378409 C355.99084,128.378409 353.873257,128.764205 352.016218,129.538447 C350.161837,130.312689 348.597245,131.426326 347.322441,132.87803 C346.048967,134.328409 345.071927,136.102273 344.395311,138.194318 C343.714707,140.287689 343.374405,142.640909 343.374405,145.253977 C343.374405,147.890909 343.714707,150.256061 344.395311,152.349432 C345.071927,154.442803 346.048967,156.214015 347.322441,157.667045 C348.597245,159.11875 350.161837,160.224432 352.016218,160.986742 C353.873257,161.749053 355.99084,162.130871 358.367637,162.130871 C360.720508,162.130871 362.82081,161.749053 364.661897,160.986742 C366.506973,160.224432 368.064918,159.11875 369.338393,157.667045 C370.611867,156.214015 371.590236,154.442803 372.269511,152.349432 C372.948785,150.256061 373.286429,147.890909 373.286429,145.253977 Z M385.878937,145.253977 C385.878937,149.076136 385.216943,152.633144 383.894284,155.923674 C382.572955,159.214205 380.710598,162.075189 378.309873,164.507955 C375.907819,166.939394 373.013921,168.844508 369.63084,170.223295 C366.246429,171.603409 362.491142,172.292803 358.367637,172.292803 C354.244133,172.292803 350.483529,171.603409 347.085825,170.223295 C343.68945,168.844508 340.783589,166.939394 338.3709,164.507955 C335.958211,162.075189 334.090538,159.214205 332.76655,155.923674 C331.442562,152.633144 330.783227,149.076136 330.783227,145.253977 C330.783227,141.430492 331.442562,137.874811 332.76655,134.58428 C334.090538,131.292424 335.958211,128.438068 338.3709,126.018561 C340.783589,123.600379 343.68945,121.699242 347.085825,120.319129 C350.483529,118.941667 354.244133,118.250947 358.367637,118.250947 C362.491142,118.250947 366.246429,118.94697 369.63084,120.339015 C373.013921,121.729735 375.907819,123.634848 378.309873,126.054356 C380.710598,128.473864 382.572955,131.329545 383.894284,134.620076 C385.216943,137.910606 385.878937,141.455682 385.878937,145.253977 Z" id="Stroke-39" stroke="#FFFFFF" stroke-width="2.486" mask="url(#mask-2)"></path>
                    <path d="M437.102248,118.832689 L437.102248,171.711856 L430.698985,171.711856 C429.75119,171.711856 428.958924,171.56072 428.315541,171.258447 C427.670828,170.956174 427.036749,170.429848 426.404,169.67947 L401.403758,138.141023 C401.500798,139.083636 401.568592,139.997083 401.603154,140.880038 C401.641704,141.764318 401.660314,142.591591 401.660314,143.367159 L401.660314,171.711856 L390.815843,171.711856 L390.815843,118.832689 L397.293547,118.832689 C397.82394,118.832689 398.274574,118.856553 398.638804,118.90428 C399.001704,118.953333 399.327384,119.044811 399.62116,119.177386 C399.912278,119.309962 400.188773,119.49822 400.458622,119.739508 C400.723154,119.982121 401.027565,120.308258 401.366538,120.719242 L426.586115,152.476439 C426.465148,151.459583 426.380073,150.474545 426.330888,149.518674 C426.281704,148.562803 426.257776,147.661288 426.257776,146.814129 L426.257776,118.832689 L437.102248,118.832689 Z" id="Fill-40" fill="#FFFFFF" mask="url(#mask-2)"></path>
                    <path d="M437.102248,118.832689 L437.102248,171.711856 L430.698985,171.711856 C429.75119,171.711856 428.958924,171.56072 428.315541,171.258447 C427.670828,170.956174 427.036749,170.429848 426.404,169.67947 L401.403758,138.141023 C401.500798,139.083636 401.568592,139.997083 401.603154,140.880038 C401.641704,141.764318 401.660314,142.591591 401.660314,143.367159 L401.660314,171.711856 L390.815843,171.711856 L390.815843,118.832689 L397.293547,118.832689 C397.82394,118.832689 398.274574,118.856553 398.638804,118.90428 C399.001704,118.953333 399.327384,119.044811 399.62116,119.177386 C399.912278,119.309962 400.188773,119.49822 400.458622,119.739508 C400.723154,119.982121 401.027565,120.308258 401.366538,120.719242 L426.586115,152.476439 C426.465148,151.459583 426.380073,150.474545 426.330888,149.518674 C426.281704,148.562803 426.257776,147.661288 426.257776,146.814129 L426.257776,118.832689 L437.102248,118.832689 Z" id="Stroke-41" stroke="#FFFFFF" stroke-width="2.486" mask="url(#mask-2)"></path>
                </g>
            </g>
        </g>
    </g>
</svg>