<?xml version="1.0" encoding="UTF-8"?>
<svg width="747px" height="50px" viewBox="0 0 747 50" version="1.1" xmlns="http://www.w3.org/2000/svg" xmlns:xlink="http://www.w3.org/1999/xlink">
    <!-- Generator: Sketch 43.2 (39069) - http://www.bohemiancoding.com/sketch -->
    <title>Group 7</title>
    <desc>Created with Sketch.</desc>
    <defs></defs>
    <g id="Page-1" stroke="none" stroke-width="1" fill="none" fill-rule="evenodd">
        <g id="Desktop-HD" transform="translate(-342.000000, -4394.000000)" fill="#CFC11F">
            <g id="Group-7" transform="translate(342.000000, 4394.000000)">
                <polygon id="Star-Copy-6" points="423.039307 41.25 406.993355 49.7479673 410.057859 31.7489837 397.076412 19.0020327 415.016331 16.3760163 423.039307 0 431.062283 16.3760163 449.002202 19.0020327 436.020754 31.7489837 439.085259 49.7479673"></polygon>
                <polygon id="Star-Copy-7" points="323.770204 41.25 307.724252 49.7479673 310.788756 31.7489837 297.807309 19.0020327 315.747228 16.3760163 323.770204 0 331.79318 16.3760163 349.733099 19.0020327 336.751651 31.7489837 339.816156 49.7479673"></polygon>
                <polygon id="Star-Copy-8" points="522.30841 41.25 506.262458 49.7479673 509.326962 31.7489837 496.345515 19.0020327 514.285434 16.3760163 522.30841 0 530.331386 16.3760163 548.271305 19.0020327 535.289857 31.7489837 538.354362 49.7479673"></polygon>
                <polygon id="Star-Copy-6" points="621.577513 41.25 605.531561 49.7479673 608.596065 31.7489837 595.614618 19.0020327 613.554537 16.3760163 621.577513 0 629.600489 16.3760163 647.540408 19.0020327 634.55896 31.7489837 637.623464 49.7479673"></polygon>
                <polygon id="Star-Copy-8" points="720.846616 41.25 704.800664 49.7479673 707.865168 31.7489837 694.883721 19.0020327 712.82364 16.3760163 720.846616 0 728.869592 16.3760163 746.809511 19.0020327 733.828063 31.7489837 736.892567 49.7479673"></polygon>
                <polygon id="Star-Copy-6" points="125.231998 41.25 109.186046 49.7479673 112.25055 31.7489837 99.269103 19.0020327 117.209022 16.3760163 125.231998 0 133.254974 16.3760163 151.194893 19.0020327 138.213445 31.7489837 141.27795 49.7479673"></polygon>
                <polygon id="Star-Copy-7" points="25.962895 41.25 9.91694344 49.7479673 12.9814475 31.7489837 -8.21565038e-15 19.0020327 17.9399192 16.3760163 25.962895 0 33.9858708 16.3760163 51.92579 19.0020327 38.9443425 31.7489837 42.0088466 49.7479673"></polygon>
                <polygon id="Star-Copy-8" points="224.501101 41.25 208.455149 49.7479673 211.519653 31.7489837 198.538206 19.0020327 216.478125 16.3760163 224.501101 0 232.524077 16.3760163 250.463996 19.0020327 237.482548 31.7489837 240.547053 49.7479673"></polygon>
            </g>
        </g>
    </g>
</svg>