<?xml version="1.0" encoding="UTF-8"?>
<svg width="14px" height="131px" viewBox="0 0 14 131" version="1.1" xmlns="http://www.w3.org/2000/svg" xmlns:xlink="http://www.w3.org/1999/xlink">
    <!-- Generator: Sketch 43.2 (39069) - http://www.bohemiancoding.com/sketch -->
    <title>Group 8</title>
    <desc>Created with Sketch.</desc>
    <defs></defs>
    <g id="Page-1" stroke="none" stroke-width="1" fill="none" fill-rule="evenodd">
        <g id="Desktop-HD" transform="translate(-1351.000000, -351.000000)" stroke="#636463">
            <g id="Group-8" transform="translate(1351.000000, 351.000000)">
                <polygon id="Star-Copy" points="7 50.1310049 2.67376208 52.4115445 3.5 47.581284 7.66608999e-14 44.1604746 4.83688104 43.455749 7 39.0610329 9.16311896 43.455749 14 44.1604746 10.5 47.581284 11.3262379 52.4115445"></polygon>
                <polygon id="Star-Copy-17" points="7 30.6004884 2.67376208 32.8810281 3.5 28.0507676 7.66608999e-14 24.6299581 4.83688104 23.9252326 7 19.5305164 9.16311896 23.9252326 14 24.6299581 10.5 28.0507676 11.3262379 32.8810281"></polygon>
                <polygon id="Star-Copy-22" points="7 11.069972 2.67376208 13.3505117 3.5 8.52025117 7.66608999e-14 5.09944169 4.83688104 4.39471618 7 0 9.16311896 4.39471618 14 5.09944169 10.5 8.52025117 11.3262379 13.3505117"></polygon>
                <polygon id="Star-Copy-18" points="7 69.6615213 2.67376208 71.942061 3.5 67.1118005 7.66608999e-14 63.690991 4.83688104 62.9862655 7 58.5915493 9.16311896 62.9862655 14 63.690991 10.5 67.1118005 11.3262379 71.942061"></polygon>
                <polygon id="Star-Copy-19" points="7 89.1920377 2.67376208 91.4725774 3.5 86.6423169 7.66608999e-14 83.2215074 4.83688104 82.5167819 7 78.1220657 9.16311896 82.5167819 14 83.2215074 10.5 86.6423169 11.3262379 91.4725774"></polygon>
                <polygon id="Star-Copy-20" points="7 108.112226 2.67376208 110.392765 3.5 105.562505 7.66608999e-14 102.141695 4.83688104 101.43697 7 97.0422535 9.16311896 101.43697 14 102.141695 10.5 105.562505 11.3262379 110.392765"></polygon>
                <polygon id="Star-Copy-21" points="7 127.642742 2.67376208 129.923282 3.5 125.093021 7.66608999e-14 121.672212 4.83688104 120.967486 7 116.57277 9.16311896 120.967486 14 121.672212 10.5 125.093021 11.3262379 129.923282"></polygon>
            </g>
        </g>
    </g>
</svg>