<?xml version="1.0" encoding="UTF-8"?>
<svg width="271px" height="252px" viewBox="0 0 271 252" version="1.1" xmlns="http://www.w3.org/2000/svg" xmlns:xlink="http://www.w3.org/1999/xlink">
    <!-- Generator: Sketch 43.2 (39069) - http://www.bohemiancoding.com/sketch -->
    <title>Group 3</title>
    <desc>Created with Sketch.</desc>
    <defs></defs>
    <g id="Page-1" stroke="none" stroke-width="1" fill="none" fill-rule="evenodd">
        <g id="Desktop-HD" transform="translate(-584.000000, -4731.000000)" fill="#CFC11F">
            <g id="Group-3" transform="translate(584.000000, 4731.000000)">
                <polygon id="Star-Copy-9" points="132.845278 42.213198 116.315204 50.909595 119.472167 32.4903305 106.099057 19.4457349 124.580241 16.7584005 132.845278 0 141.110315 16.7584005 159.5915 19.4457349 146.218389 32.4903305 149.375352 50.909595"></polygon>
                <polygon id="Star-Copy-10" points="53.5905611 67.7969543 37.0604872 76.4933514 40.2174504 58.0740868 26.8443396 45.0294913 45.3255241 42.3421568 53.5905611 25.5837563 61.8555981 42.3421568 80.3367825 45.0294913 66.9636718 58.0740868 70.120635 76.4933514"></polygon>
                <polygon id="Star-Copy-12" points="26.7462215 140.71066 10.2161475 149.407057 13.3731107 130.987792 -5.79536419e-14 117.943197 18.4811845 115.255862 26.7462215 98.4974619 35.0112584 115.255862 53.4924429 117.943197 40.1193322 130.987792 43.2762954 149.407057"></polygon>
                <g id="Group" transform="translate(217.311321, 98.497462)">
                    <polygon id="Star-Copy-16" points="26.7462215 42.213198 10.2161475 50.909595 13.3731107 32.4903305 5.5067062e-14 19.4457349 18.4811845 16.7584005 26.7462215 0 35.0112584 16.7584005 53.4924429 19.4457349 40.1193322 32.4903305 43.2762954 50.909595"></polygon>
                </g>
                <polygon id="Star-Copy-13" points="53.5905611 216.182741 37.0604872 224.879138 40.2174504 206.459874 26.8443396 193.415278 45.3255241 190.727944 53.5905611 173.969543 61.8555981 190.727944 80.3367825 193.415278 66.9636718 206.459874 70.120635 224.879138"></polygon>
                <g id="Group-2" transform="translate(190.466981, 173.969543)">
                    <polygon id="Star-Copy-15" points="26.7462215 42.213198 10.2161475 50.909595 13.3731107 32.4903305 1.69420034e-13 19.4457349 18.4811845 16.7584005 26.7462215 0 35.0112584 16.7584005 53.4924429 19.4457349 40.1193322 32.4903305 43.2762954 50.909595"></polygon>
                </g>
                <polygon id="Star-Copy-14" points="136.680184 243.045685 120.15011 251.742082 123.307073 233.322818 109.933962 220.278222 128.415147 217.590888 136.680184 200.832487 144.945221 217.590888 163.426405 220.278222 150.053294 233.322818 153.210258 251.742082"></polygon>
                <polygon id="Star-Copy-11" points="217.213203 67.7969543 200.683129 76.4933514 203.840092 58.0740868 190.466981 45.0294913 208.948166 42.3421568 217.213203 25.5837563 225.47824 42.3421568 243.959424 45.0294913 230.586313 58.0740868 233.743277 76.4933514"></polygon>
            </g>
        </g>
    </g>
</svg>